<svg xmlns="http://www.w3.org/2000/svg" width="512" height="512" viewBox="0 0 512 512" style="" data-bbox="27.41 129.902 448.079 252.197">
  <g transform="matrix(0.7264044284820557, 0, 0, 0.7264044284820557, 118.74284362792969, -12.042120933532715)">
    <path class="st1" d="M203.1 267.4c-0.5-1.4-0.6-4.9 1.5-8.4l53-88.9c0.7-1.1 1.3-1.8 1.7-2.2c0.2 0.7 0.3 2-0.1 3.9l-14.6 73.6&#xA;&#x9;&#x9;&#x9;l13.4-5.4l13-65.9c1.9-9.8-2.3-16.1-7.4-18c-4.5-1.7-11.5-0.7-16.5 7.8l-53 88.9c-4.1 6.8-4.6 15.2-1.4 20.9&#xA;&#x9;&#x9;&#x9;c2.1 3.7 5.6 5.8 9.6 5.8h26l2.8-12.1H203.1z" fill="#FFAB11" transform="matrix(1, 0, 0, 1, -61, 40)" />
    <path class="st2" d="M307.2 226.3c-2.1-3.7-5.6-5.8-9.6-5.8h-25.4l-2.6 11.7l27.3 0.4c0.5 1.4 0.6 4.9-1.5 8.4l-53 88.9&#xA;&#x9;&#x9;&#x9;c-0.7 1.1-1.3 1.8-1.7 2.2c-0.2-0.7-0.3-2 0.1-3.9l14.7-74.2l-13.4 5.4l-13.1 66.4c-1.9 9.8 2.3 16.1 7.4 18&#xA;&#x9;&#x9;&#x9;c1.1 0.4 2.5 0.7 3.9 0.7c4.1 0 8.9-2.2 12.6-8.5l53-88.9C309.9 240.3 310.4 231.9 307.2 226.3z" fill="#0C0F27" transform="matrix(1, 0, 0, 1, -61, 40)" />
  </g>
  <path text="MAXXIMUS" fill="#0c0f27" space="preserve" text-anchor="middle" offset="0.5" font-scale="contain" font-size="48" font-family="Work Sans" transform="matrix(1.7090365886688232, 0, 0, 1.7090365886688232, 250.1756134033203, 350.19940185546875)" data-fl-textpath="" font-style="italic" font-weight="700" d="M-123.046 0L-130.346 0L-122.996-31.68L-112.586-31.68L-111.046-16.32L-110.616-8.5L-110.566-8.5L-106.726-16.32L-98.326-31.68L-86.516-31.68L-93.866 0L-101.156 0L-97.796-14.54L-95.546-23.9L-95.636-23.9L-108.936 0L-115.276 0L-117.866-23.71L-117.956-23.71L-119.686-14.54L-123.046 0ZM-81.674 0L-90.264 0L-71.924-31.68L-61.944-31.68L-58.394 0L-66.214 0L-67.804-20.02L-68.084-25.34L-68.184-25.34L-70.724-20.11L-81.674 0ZM-63.674-7.44L-81.194-7.44L-79.844-13.06L-62.374-13.06L-63.674-7.44ZM-47.926 0L-57.866 0L-43.126-16.46L-49.796-31.68L-40.826-31.68L-37.226-22.27L-29.636-31.68L-20.326-31.68L-34.246-16.03L-26.956 0L-35.876 0L-39.766-9.89L-47.926 0ZM-16.246 0L-26.186 0L-11.446-16.46L-18.116-31.68L-9.146-31.68L-5.546-22.27L 2.044-31.68L 11.354-31.68L-2.566-16.03L 4.724 0L-4.196 0L-8.086-9.89L-16.246 0ZM 15.964-31.68L 24.214-31.68L 16.874 0L 8.614 0L 15.964-31.68ZM 31.082 0L 23.782 0L 31.132-31.68L 41.542-31.68L 43.082-16.32L 43.512-8.5L 43.562-8.5L 47.402-16.32L 55.802-31.68L 67.612-31.68L 60.262 0L 52.972 0L 56.332-14.54L 58.582-23.9L 58.492-23.9L 45.192 0L 38.852 0L 36.262-23.71L 36.172-23.71L 34.442-14.54L 31.082 0ZM 82.294 0.48L 82.294 0.48Q 77.544 0.48  74.374-1.25Q 71.204-2.98  69.964-6.24Q 68.714-9.5  69.764-14.06L 69.764-14.06L 73.894-31.68L 82.154-31.68L 77.884-12.91Q 77.404-10.66  77.904-9.12Q 78.404-7.58  79.724-6.79Q 81.044-6  83.014-6L 83.014-6Q 85.654-6  87.144-7.58Q 88.634-9.17  89.304-12.24L 89.304-12.24L 93.814-31.68L 102.024-31.68L 97.464-12Q 96.024-5.86  92.374-2.69Q 88.724 0.48  82.294 0.48ZM 116.236 0.53L 116.236 0.53Q 112.876 0.53  109.896-0.36Q 106.916-1.25  104.546-2.98Q 102.166-4.7  100.486-7.34L 100.486-7.34L 105.336-12.1Q 106.486-10.08  108.236-8.66Q 109.996-7.25  112.056-6.55Q 114.116-5.86  116.186-5.86L 116.186-5.86Q 117.676-5.86  118.606-6.29Q 119.546-6.72  120.026-7.44Q 120.506-8.16  120.506-8.98L 120.506-8.98Q 120.506-10.03  119.736-10.63Q 118.966-11.23  117.436-11.71L 117.436-11.71L 112.676-13.25Q 110.516-13.97  108.766-15.14Q 107.016-16.32  106.006-18.05Q 104.996-19.78  104.996-22.03L 104.996-22.03Q 104.996-25.25  106.656-27.5Q 108.316-29.76  111.216-30.96Q 114.116-32.16  117.866-32.16L 117.866-32.16Q 122.806-32.16  126.216-30.41Q 129.626-28.66  131.836-25.49L 131.836-25.49L 126.796-20.88Q 125.786-22.56  124.366-23.64Q 122.956-24.72  121.276-25.25Q 119.596-25.78  117.866-25.78L 117.866-25.78Q 116.426-25.78  115.466-25.39Q 114.506-25.01  114.046-24.36Q 113.596-23.71  113.596-22.85L 113.596-22.85Q 113.596-21.89  114.526-21.1Q 115.466-20.3  116.996-19.82L 116.996-19.82L 121.756-18.29Q 125.356-17.14  127.226-15.14Q 129.096-13.15  129.096-9.94L 129.096-9.94Q 129.096-6.67  127.396-4.32Q 125.686-1.97  122.756-0.72Q 119.836 0.53  116.236 0.53Z" />
  <path text="EFICIÊNCIA ENERGÉTICA E GESTÃO DE ATIVOS" fill="#000000" space="preserve" text-anchor="middle" offset="0.5" font-scale="contain" font-size="48" font-family="Work Sans" transform="matrix(0.3398227095603943, 0, 0, 0.49773287773132324, 251.05772399902344, 381.8595886230469)" data-fl-textpath="" font-style="normal" font-weight="400" letter-spacing="6" d="M-654.292-3.6L-635.182-3.6L-635.182 0L-658.132 0L-658.132-31.68L-635.902-31.68L-635.902-28.08L-654.292-28.08L-654.292-17.86L-639.982-17.86L-639.982-14.26L-654.292-14.26L-654.292-3.6ZM-599.328-28.08L-617.668-28.08L-617.668-17.86L-603.358-17.86L-603.358-14.26L-617.668-14.26L-617.668 0L-621.508 0L-621.508-31.68L-599.328-31.68L-599.328-28.08ZM-582.388-31.68L-582.388 0L-586.228 0L-586.228-31.68L-582.388-31.68ZM-540.48-8.11Q-541.97-4.08 -545.38-1.8Q-548.78 0.48 -553.25 0.48L-553.25 0.48Q-557.71 0.48 -561.02-1.51Q-564.34-3.5 -566.14-7.18Q-567.94-10.85 -567.94-15.84L-567.94-15.84Q-567.94-20.78 -566.14-24.48Q-564.34-28.18 -561.02-30.17Q-557.71-32.16 -553.34-32.16L-553.34-32.16Q-548.78-32.16 -545.69-30.29Q-542.59-28.42 -541.06-24.77L-541.06-24.77L-544.85-22.99Q-545.9-25.78 -547.92-27.17Q-549.94-28.56 -553.06-28.56L-553.06-28.56Q-556.32-28.56 -558.77-27.05Q-561.22-25.54 -562.56-22.66Q-563.9-19.78 -563.9-15.84L-563.9-15.84Q-563.9-9.89 -561.05-6.5Q-558.19-3.12 -553.25-3.12L-553.25-3.12Q-550.03-3.12 -547.68-4.75Q-545.33-6.38 -544.32-9.55L-544.32-9.55L-540.48-8.11ZM-523.252-31.68L-523.252 0L-527.092 0L-527.092-31.68L-523.252-31.68ZM-495.794-40.85L-499.924-35.33L-503.424-35.33L-497.954-43.34L-493.634-43.34L-488.164-35.33L-491.664-35.33L-495.794-40.85ZM-503.044-3.6L-483.934-3.6L-483.934 0L-506.884 0L-506.884-31.68L-484.654-31.68L-484.654-28.08L-503.044-28.08L-503.044-17.86L-488.734-17.86L-488.734-14.26L-503.044-14.26L-503.044-3.6ZM-445.39-31.68L-445.39 0L-450.14 0L-463.39-21.22L-466.75-27.46L-466.8-27.46L-466.61-22.37L-466.61 0L-470.26 0L-470.26-31.68L-465.5-31.68L-452.3-10.56L-448.9-4.22L-448.85-4.22L-449.04-9.31L-449.04-31.68L-445.39-31.68ZM-403.488-8.11Q-404.978-4.08 -408.388-1.8Q-411.788 0.48 -416.258 0.48L-416.258 0.48Q-420.718 0.48 -424.028-1.51Q-427.348-3.5 -429.148-7.18Q-430.948-10.85 -430.948-15.84L-430.948-15.84Q-430.948-20.78 -429.148-24.48Q-427.348-28.18 -424.028-30.17Q-420.718-32.16 -416.348-32.16L-416.348-32.16Q-411.788-32.16 -408.698-30.29Q-405.598-28.42 -404.068-24.77L-404.068-24.77L-407.858-22.99Q-408.908-25.78 -410.928-27.17Q-412.948-28.56 -416.068-28.56L-416.068-28.56Q-419.328-28.56 -421.778-27.05Q-424.228-25.54 -425.568-22.66Q-426.908-19.78 -426.908-15.84L-426.908-15.84Q-426.908-9.89 -424.058-6.5Q-421.198-3.12 -416.258-3.12L-416.258-3.12Q-413.038-3.12 -410.688-4.75Q-408.338-6.38 -407.328-9.55L-407.328-9.55L-403.488-8.11ZM-386.26-31.68L-386.26 0L-390.1 0L-390.1-31.68L-386.26-31.68ZM-348.722 0L-352.082-8.78L-366.432-8.78L-369.792 0L-373.822 0L-361.492-31.68L-356.932-31.68L-344.642 0L-348.722 0ZM-365.042-12.38L-353.472-12.38L-357.742-23.62L-359.232-28.03L-359.332-28.03L-360.722-23.76L-365.042-12.38ZM-307.924-3.6L-288.814-3.6L-288.814 0L-311.764 0L-311.764-31.68L-289.534-31.68L-289.534-28.08L-307.924-28.08L-307.924-17.86L-293.614-17.86L-293.614-14.26L-307.924-14.26L-307.924-3.6ZM-250.27-31.68L-250.27 0L-255.02 0L-268.27-21.22L-271.63-27.46L-271.68-27.46L-271.49-22.37L-271.49 0L-275.14 0L-275.14-31.68L-270.38-31.68L-257.18-10.56L-253.78-4.22L-253.73-4.22L-253.92-9.31L-253.92-31.68L-250.27-31.68ZM-230.068-3.6L-210.958-3.6L-210.958 0L-233.908 0L-233.908-31.68L-211.678-31.68L-211.678-28.08L-230.068-28.08L-230.068-17.86L-215.758-17.86L-215.758-14.26L-230.068-14.26L-230.068-3.6ZM-177.214 0L-185.854-13.15L-193.444-13.15L-193.444 0L-197.284 0L-197.284-31.68L-185.284-31.68Q-180.434-31.68 -177.504-29.18Q-174.574-26.69 -174.574-22.42L-174.574-22.42Q-174.574-19.06 -176.444-16.75Q-178.324-14.45 -181.584-13.58L-181.584-13.58L-172.654 0L-177.214 0ZM-193.444-28.08L-193.444-16.75L-185.324-16.75Q-178.604-16.75 -178.604-22.42L-178.604-22.42Q-178.604-28.08 -185.324-28.08L-185.324-28.08L-193.444-28.08ZM-147.452-15.98L-133.872-15.98L-133.872 0L-136.752 0L-136.892-4.27Q-138.292-1.97 -140.812-0.74Q-143.332 0.48 -146.882 0.48L-146.882 0.48Q-151.342 0.48 -154.652-1.51Q-157.972-3.5 -159.772-7.18Q-161.572-10.85 -161.572-15.84L-161.572-15.84Q-161.572-20.78 -159.722-24.48Q-157.872-28.18 -154.532-30.17Q-151.202-32.16 -146.782-32.16L-146.782-32.16Q-142.082-32.16 -139.032-30.38Q-135.982-28.61 -134.112-24.91L-134.112-24.91L-137.612-22.99Q-138.672-25.68 -141.052-27.12Q-143.422-28.56 -146.782-28.56L-146.782-28.56Q-150.002-28.56 -152.422-27.02Q-154.852-25.49 -156.192-22.63Q-157.532-19.78 -157.532-15.84L-157.532-15.84Q-157.532-9.79 -154.752-6.46Q-151.972-3.12 -146.732-3.12L-146.732-3.12Q-142.612-3.12 -139.992-5.23Q-137.372-7.34 -137.372-11.28L-137.372-11.28L-137.372-12.38L-147.452-12.38L-147.452-15.98ZM-102.58-42.77L-106.7-35.66L-109.82-35.66L-107.09-42.77L-102.58-42.77ZM-115.06-3.6L-95.95-3.6L-95.95 0L-118.9 0L-118.9-31.68L-96.67-31.68L-96.67-28.08L-115.06-28.08L-115.06-17.86L-100.75-17.86L-100.75-14.26L-115.06-14.26L-115.06-3.6ZM-59.996-31.68L-59.996-28.08L-71.036-28.08L-71.036 0L-74.876 0L-74.876-28.08L-85.916-28.08L-85.916-31.68L-59.996-31.68ZM-43.444-31.68L-43.444 0L-47.284 0L-47.284-31.68L-43.444-31.68ZM-1.536-8.11Q-3.026-4.08 -6.436-1.8Q-9.836 0.48 -14.306 0.48L-14.306 0.48Q-18.766 0.48 -22.076-1.51Q-25.396-3.5 -27.196-7.18Q-28.996-10.85 -28.996-15.84L-28.996-15.84Q-28.996-20.78 -27.196-24.48Q-25.396-28.18 -22.076-30.17Q-18.766-32.16 -14.396-32.16L-14.396-32.16Q-9.836-32.16 -6.746-30.29Q-3.646-28.42 -2.116-24.77L-2.116-24.77L-5.906-22.99Q-6.956-25.78 -8.976-27.17Q-10.996-28.56 -14.116-28.56L-14.116-28.56Q-17.376-28.56 -19.826-27.05Q-22.276-25.54 -23.616-22.66Q-24.956-19.78 -24.956-15.84L-24.956-15.84Q-24.956-9.89 -22.106-6.5Q-19.246-3.12 -14.306-3.12L-14.306-3.12Q-11.086-3.12 -8.736-4.75Q-6.386-6.38 -5.376-9.55L-5.376-9.55L-1.536-8.11ZM 33.022 0L 29.662-8.78L 15.312-8.78L 11.952 0L 7.922 0L 20.252-31.68L 24.812-31.68L 37.102 0L 33.022 0ZM 16.702-12.38L 28.272-12.38L 24.002-23.62L 22.512-28.03L 22.412-28.03L 21.022-23.76L 16.702-12.38ZM 73.82-3.6L 92.93-3.6L 92.93 0L 69.98 0L 69.98-31.68L 92.21-31.68L 92.21-28.08L 73.82-28.08L 73.82-17.86L 88.13-17.86L 88.13-14.26L 73.82-14.26L 73.82-3.6ZM 141.172-15.98L 154.752-15.98L 154.752 0L 151.872 0L 151.732-4.27Q 150.332-1.97  147.812-0.74Q 145.292 0.48  141.742 0.48L 141.742 0.48Q 137.282 0.48  133.972-1.51Q 130.652-3.5  128.852-7.18Q 127.052-10.85  127.052-15.84L 127.052-15.84Q 127.052-20.78  128.902-24.48Q 130.752-28.18  134.092-30.17Q 137.422-32.16  141.842-32.16L 141.842-32.16Q 146.542-32.16  149.592-30.38Q 152.642-28.61  154.512-24.91L 154.512-24.91L 151.012-22.99Q 149.952-25.68  147.572-27.12Q 145.202-28.56  141.842-28.56L 141.842-28.56Q 138.622-28.56  136.202-27.02Q 133.772-25.49  132.432-22.63Q 131.092-19.78  131.092-15.84L 131.092-15.84Q 131.092-9.79  133.872-6.46Q 136.652-3.12  141.892-3.12L 141.892-3.12Q 146.012-3.12  148.632-5.23Q 151.252-7.34  151.252-11.28L 151.252-11.28L 151.252-12.38L 141.172-12.38L 141.172-15.98ZM 173.564-3.6L 192.674-3.6L 192.674 0L 169.724 0L 169.724-31.68L 191.954-31.68L 191.954-28.08L 173.564-28.08L 173.564-17.86L 187.874-17.86L 187.874-14.26L 173.564-14.26L 173.564-3.6ZM 216.528-32.16Q 225.028-32.16  228.768-25.44L 228.768-25.44L 225.458-22.75Q 224.018-25.92  222.028-27.24Q 220.028-28.56  216.578-28.56L 216.578-28.56Q 212.928-28.56  210.838-27.05Q 208.748-25.54  208.748-23.18L 208.748-23.18Q 208.748-21.65  209.568-20.64Q 210.388-19.63  212.278-18.89Q 214.178-18.14  217.538-17.57L 217.538-17.57Q 223.828-16.51  226.438-14.4Q 229.058-12.29  229.058-8.54L 229.058-8.54Q 229.058-5.86  227.548-3.82Q 226.028-1.78  223.248-0.65Q 220.468 0.48  216.818 0.48L 216.818 0.48Q 212.018 0.48  208.628-1.39Q 205.248-3.26  203.468-6.38L 203.468-6.38L 206.788-9.07Q 208.078-6.24  210.598-4.68Q 213.118-3.12  216.908-3.12L 216.908-3.12Q 220.658-3.12  222.868-4.49Q 225.068-5.86  225.068-8.35L 225.068-8.35Q 225.068-10.46  223.148-11.71Q 221.228-12.96  216.338-13.82L 216.338-13.82Q 209.998-14.93  207.358-16.99Q 204.718-19.06  204.718-22.75L 204.718-22.75Q 204.718-25.3  206.158-27.46Q 207.598-29.62  210.288-30.89Q 212.978-32.16  216.528-32.16L 216.528-32.16ZM 263.956-31.68L 263.956-28.08L 252.916-28.08L 252.916 0L 249.076 0L 249.076-28.08L 238.036-28.08L 238.036-31.68L 263.956-31.68ZM 293.518 0L 290.158-8.78L 275.808-8.78L 272.448 0L 268.418 0L 280.748-31.68L 285.308-31.68L 297.598 0L 293.518 0ZM 277.198-12.38L 288.768-12.38L 284.498-23.62L 283.008-28.03L 282.908-28.03L 281.518-23.76L 277.198-12.38ZM 291.648-42.1Q 291.118-35.66  286.268-35.66L 286.268-35.66Q 284.878-35.66  283.968-36.17Q 283.058-36.67  281.998-37.63L 281.998-37.63Q 281.228-38.3  280.748-38.62Q 280.268-38.93  279.648-38.93L 279.648-38.93Q 278.638-38.93  278.108-38.11Q 277.588-37.3  277.298-35.62L 277.298-35.62L 274.268-35.62Q 274.508-38.83  275.828-40.44Q 277.148-42.05  279.698-42.05L 279.698-42.05Q 281.038-42.05  281.978-41.52Q 282.908-40.99  283.968-40.03L 283.968-40.03Q 284.688-39.41  285.188-39.1Q 285.698-38.78  286.228-38.78L 286.228-38.78Q 287.228-38.78  287.788-39.62Q 288.338-40.46  288.628-42.1L 288.628-42.1L 291.648-42.1ZM 321.742-32.16Q 326.212-32.16  329.522-30.17Q 332.832-28.18  334.632-24.5Q 336.432-20.83  336.432-15.84L 336.432-15.84Q 336.432-10.85  334.632-7.18Q 332.832-3.5  329.522-1.51Q 326.212 0.48  321.742 0.48L 321.742 0.48Q 317.282 0.48  313.972-1.51Q 310.652-3.5  308.852-7.18Q 307.052-10.85  307.052-15.84L 307.052-15.84Q 307.052-20.83  308.852-24.5Q 310.652-28.18  313.972-30.17Q 317.282-32.16  321.742-32.16L 321.742-32.16ZM 321.742-28.56Q 316.802-28.56  313.942-25.18Q 311.092-21.79  311.092-15.84L 311.092-15.84Q 311.092-9.89  313.942-6.5Q 316.802-3.12  321.742-3.12L 321.742-3.12Q 326.692-3.12  329.542-6.5Q 332.402-9.89  332.402-15.84L 332.402-15.84Q 332.402-21.79  329.542-25.18Q 326.692-28.56  321.742-28.56L 321.742-28.56ZM 383.474-31.68Q 390.964-31.68  395.184-27.55Q 399.404-23.42  399.404-15.84L 399.404-15.84Q 399.404-8.26  395.184-4.13Q 390.964 0  383.474 0L 383.474 0L 373.244 0L 373.244-31.68L 383.474-31.68ZM 383.854-3.6Q 389.284-3.6  392.324-6.84Q 395.374-10.08  395.374-15.84L 395.374-15.84Q 395.374-21.6  392.324-24.84Q 389.284-28.08  383.854-28.08L 383.854-28.08L 377.084-28.08L 377.084-3.6L 383.854-3.6ZM 417.692-3.6L 436.802-3.6L 436.802 0L 413.852 0L 413.852-31.68L 436.082-31.68L 436.082-28.08L 417.692-28.08L 417.692-17.86L 432.002-17.86L 432.002-14.26L 417.692-14.26L 417.692-3.6ZM 492.094 0L 488.734-8.78L 474.384-8.78L 471.024 0L 466.994 0L 479.324-31.68L 483.884-31.68L 496.174 0L 492.094 0ZM 475.774-12.38L 487.344-12.38L 483.074-23.62L 481.584-28.03L 481.484-28.03L 480.094-23.76L 475.774-12.38ZM 526.564-31.68L 526.564-28.08L 515.524-28.08L 515.524 0L 511.684 0L 511.684-28.08L 500.644-28.08L 500.644-31.68L 526.564-31.68ZM 543.116-31.68L 543.116 0L 539.276 0L 539.276-31.68L 543.116-31.68ZM 584.064-31.68L 572.064 0L 567.694 0L 555.644-31.68L 559.774-31.68L 567.844-9.79L 569.854-3.5L 571.874-9.74L 579.934-31.68L 584.064-31.68ZM 608.59-32.16Q 613.06-32.16  616.37-30.17Q 619.68-28.18  621.48-24.5Q 623.28-20.83  623.28-15.84L 623.28-15.84Q 623.28-10.85  621.48-7.18Q 619.68-3.5  616.37-1.51Q 613.06 0.48  608.59 0.48L 608.59 0.48Q 604.13 0.48  600.82-1.51Q 597.5-3.5  595.7-7.18Q 593.9-10.85  593.9-15.84L 593.9-15.84Q 593.9-20.83  595.7-24.5Q 597.5-28.18  600.82-30.17Q 604.13-32.16  608.59-32.16L 608.59-32.16ZM 608.59-28.56Q 603.65-28.56  600.79-25.18Q 597.94-21.79  597.94-15.84L 597.94-15.84Q 597.94-9.89  600.79-6.5Q 603.65-3.12  608.59-3.12L 608.59-3.12Q 613.54-3.12  616.39-6.5Q 619.25-9.89  619.25-15.84L 619.25-15.84Q 619.25-21.79  616.39-25.18Q 613.54-28.56  608.59-28.56L 608.59-28.56ZM 647.904-32.16Q 656.404-32.16  660.144-25.44L 660.144-25.44L 656.834-22.75Q 655.394-25.92  653.404-27.24Q 651.404-28.56  647.954-28.56L 647.954-28.56Q 644.304-28.56  642.214-27.05Q 640.124-25.54  640.124-23.18L 640.124-23.18Q 640.124-21.65  640.944-20.64Q 641.764-19.63  643.654-18.89Q 645.554-18.14  648.914-17.57L 648.914-17.57Q 655.204-16.51  657.814-14.4Q 660.434-12.29  660.434-8.54L 660.434-8.54Q 660.434-5.86  658.924-3.82Q 657.404-1.78  654.624-0.65Q 651.844 0.48  648.194 0.48L 648.194 0.48Q 643.394 0.48  640.004-1.39Q 636.624-3.26  634.844-6.38L 634.844-6.38L 638.164-9.07Q 639.454-6.24  641.974-4.68Q 644.494-3.12  648.284-3.12L 648.284-3.12Q 652.034-3.12  654.244-4.49Q 656.444-5.86  656.444-8.35L 656.444-8.35Q 656.444-10.46  654.524-11.71Q 652.604-12.96  647.714-13.82L 647.714-13.82Q 641.374-14.93  638.734-16.99Q 636.094-19.06  636.094-22.75L 636.094-22.75Q 636.094-25.3  637.534-27.46Q 638.974-29.62  641.664-30.89Q 644.354-32.16  647.904-32.16L 647.904-32.16Z" />
</svg>